<mxfile host="app.diagrams.net" agent="Mozilla/5.0 (X11; Linux x86_64; rv:134.0) Gecko/20100101 Firefox/134.0" version="26.0.6" pages="2">
  <diagram name="Page-1" id="EeAKFh5fpxmIjhFlPdim">
    <mxGraphModel dx="2023" dy="534" grid="1" gridSize="10" guides="1" tooltips="1" connect="1" arrows="1" fold="1" page="1" pageScale="1" pageWidth="1100" pageHeight="850" math="0" shadow="0">
      <root>
        <mxCell id="0" />
        <mxCell id="1" parent="0" />
        <mxCell id="hWV2brgtQE8_2uig3-CZ-7" style="edgeStyle=orthogonalEdgeStyle;rounded=0;orthogonalLoop=1;jettySize=auto;html=1;" edge="1" parent="1" source="hWV2brgtQE8_2uig3-CZ-2" target="hWV2brgtQE8_2uig3-CZ-6">
          <mxGeometry relative="1" as="geometry">
            <Array as="points">
              <mxPoint x="60" y="240" />
              <mxPoint x="60" y="240" />
            </Array>
          </mxGeometry>
        </mxCell>
        <mxCell id="hWV2brgtQE8_2uig3-CZ-2" value="" style="html=1;verticalLabelPosition=bottom;align=center;labelBackgroundColor=#ffffff;verticalAlign=top;strokeWidth=2;strokeColor=#0080F0;shadow=0;dashed=0;shape=mxgraph.ios7.icons.smartphone;" vertex="1" parent="1">
          <mxGeometry x="-30" y="205" width="58" height="95" as="geometry" />
        </mxCell>
        <mxCell id="hWV2brgtQE8_2uig3-CZ-16" style="edgeStyle=orthogonalEdgeStyle;rounded=0;orthogonalLoop=1;jettySize=auto;html=1;dashed=1;" edge="1" parent="1" source="hWV2brgtQE8_2uig3-CZ-3" target="hWV2brgtQE8_2uig3-CZ-6">
          <mxGeometry relative="1" as="geometry">
            <Array as="points">
              <mxPoint x="221" y="270" />
              <mxPoint x="221" y="270" />
            </Array>
          </mxGeometry>
        </mxCell>
        <mxCell id="hWV2brgtQE8_2uig3-CZ-3" value="automatic-payment" style="rounded=1;whiteSpace=wrap;html=1;" vertex="1" parent="1">
          <mxGeometry x="270" y="248.75" width="120" height="35" as="geometry" />
        </mxCell>
        <mxCell id="hWV2brgtQE8_2uig3-CZ-17" style="edgeStyle=orthogonalEdgeStyle;rounded=0;orthogonalLoop=1;jettySize=auto;html=1;dashed=1;" edge="1" parent="1" source="hWV2brgtQE8_2uig3-CZ-4">
          <mxGeometry relative="1" as="geometry">
            <mxPoint x="162" y="330" as="targetPoint" />
            <Array as="points">
              <mxPoint x="220" y="330" />
              <mxPoint x="220" y="330" />
            </Array>
          </mxGeometry>
        </mxCell>
        <mxCell id="hWV2brgtQE8_2uig3-CZ-4" value="payment-history" style="rounded=1;whiteSpace=wrap;html=1;" vertex="1" parent="1">
          <mxGeometry x="270" y="310" width="120" height="30" as="geometry" />
        </mxCell>
        <mxCell id="hWV2brgtQE8_2uig3-CZ-13" style="edgeStyle=orthogonalEdgeStyle;rounded=0;orthogonalLoop=1;jettySize=auto;html=1;dashed=1;" edge="1" parent="1" source="hWV2brgtQE8_2uig3-CZ-5" target="hWV2brgtQE8_2uig3-CZ-6">
          <mxGeometry relative="1" as="geometry">
            <Array as="points">
              <mxPoint x="200" y="200" />
              <mxPoint x="200" y="200" />
            </Array>
          </mxGeometry>
        </mxCell>
        <mxCell id="hWV2brgtQE8_2uig3-CZ-5" value="automatic-payment-receipt" style="rounded=1;whiteSpace=wrap;html=1;" vertex="1" parent="1">
          <mxGeometry x="270" y="180" width="170" height="40" as="geometry" />
        </mxCell>
        <mxCell id="hWV2brgtQE8_2uig3-CZ-11" style="edgeStyle=orthogonalEdgeStyle;rounded=0;orthogonalLoop=1;jettySize=auto;html=1;" edge="1" parent="1" source="hWV2brgtQE8_2uig3-CZ-6" target="hWV2brgtQE8_2uig3-CZ-5">
          <mxGeometry relative="1" as="geometry">
            <mxPoint x="280" y="-40.27777777777778" as="targetPoint" />
            <Array as="points">
              <mxPoint x="230" y="190" />
              <mxPoint x="230" y="190" />
            </Array>
          </mxGeometry>
        </mxCell>
        <mxCell id="hWV2brgtQE8_2uig3-CZ-14" style="edgeStyle=orthogonalEdgeStyle;rounded=0;orthogonalLoop=1;jettySize=auto;html=1;" edge="1" parent="1" source="hWV2brgtQE8_2uig3-CZ-6" target="hWV2brgtQE8_2uig3-CZ-3">
          <mxGeometry relative="1" as="geometry">
            <Array as="points">
              <mxPoint x="220" y="260" />
              <mxPoint x="220" y="260" />
            </Array>
          </mxGeometry>
        </mxCell>
        <mxCell id="hWV2brgtQE8_2uig3-CZ-15" style="edgeStyle=orthogonalEdgeStyle;rounded=0;orthogonalLoop=1;jettySize=auto;html=1;" edge="1" parent="1" target="hWV2brgtQE8_2uig3-CZ-4">
          <mxGeometry relative="1" as="geometry">
            <mxPoint x="162" y="320" as="sourcePoint" />
            <Array as="points">
              <mxPoint x="230" y="320" />
              <mxPoint x="230" y="320" />
            </Array>
          </mxGeometry>
        </mxCell>
        <mxCell id="hWV2brgtQE8_2uig3-CZ-6" value="&lt;div&gt;api gateway&lt;/div&gt;&lt;div&gt;&lt;br&gt;&lt;/div&gt;&lt;div&gt;&lt;br&gt;&lt;/div&gt;&lt;div&gt;Rate limiting&lt;/div&gt;&lt;div&gt;Authzn&lt;br&gt;&lt;/div&gt;" style="rounded=1;whiteSpace=wrap;html=1;" vertex="1" parent="1">
          <mxGeometry x="100" y="127.5" width="62" height="250" as="geometry" />
        </mxCell>
        <mxCell id="hWV2brgtQE8_2uig3-CZ-8" style="edgeStyle=orthogonalEdgeStyle;rounded=0;orthogonalLoop=1;jettySize=auto;html=1;dashed=1;" edge="1" parent="1" source="hWV2brgtQE8_2uig3-CZ-6" target="hWV2brgtQE8_2uig3-CZ-2">
          <mxGeometry relative="1" as="geometry">
            <mxPoint x="50" y="310" as="targetPoint" />
            <Array as="points">
              <mxPoint x="60" y="260" />
              <mxPoint x="60" y="260" />
            </Array>
          </mxGeometry>
        </mxCell>
      </root>
    </mxGraphModel>
  </diagram>
  <diagram id="IdTEDqSZxdmFBfKdahUO" name="Page-2">
    <mxGraphModel dx="1368" dy="755" grid="1" gridSize="10" guides="1" tooltips="1" connect="1" arrows="1" fold="1" page="1" pageScale="1" pageWidth="1100" pageHeight="850" math="0" shadow="0">
      <root>
        <mxCell id="0" />
        <mxCell id="1" parent="0" />
        <mxCell id="hV2q_BAAgB7fmabV7wKd-4" style="edgeStyle=orthogonalEdgeStyle;rounded=0;orthogonalLoop=1;jettySize=auto;html=1;" edge="1" parent="1" source="hV2q_BAAgB7fmabV7wKd-1" target="hV2q_BAAgB7fmabV7wKd-3">
          <mxGeometry relative="1" as="geometry">
            <Array as="points">
              <mxPoint x="220" y="420" />
              <mxPoint x="220" y="420" />
            </Array>
          </mxGeometry>
        </mxCell>
        <mxCell id="hV2q_BAAgB7fmabV7wKd-11" style="edgeStyle=orthogonalEdgeStyle;rounded=1;orthogonalLoop=1;jettySize=auto;html=1;curved=0;" edge="1" parent="1" source="hV2q_BAAgB7fmabV7wKd-1" target="hV2q_BAAgB7fmabV7wKd-2">
          <mxGeometry relative="1" as="geometry">
            <Array as="points">
              <mxPoint x="130" y="269" />
            </Array>
          </mxGeometry>
        </mxCell>
        <mxCell id="hV2q_BAAgB7fmabV7wKd-14" style="edgeStyle=orthogonalEdgeStyle;rounded=1;orthogonalLoop=1;jettySize=auto;html=1;curved=0;" edge="1" parent="1" source="hV2q_BAAgB7fmabV7wKd-1" target="hV2q_BAAgB7fmabV7wKd-13">
          <mxGeometry relative="1" as="geometry">
            <Array as="points">
              <mxPoint x="130" y="610" />
            </Array>
          </mxGeometry>
        </mxCell>
        <mxCell id="hV2q_BAAgB7fmabV7wKd-1" value="" style="html=1;verticalLabelPosition=bottom;align=center;labelBackgroundColor=#ffffff;verticalAlign=top;strokeWidth=2;strokeColor=#0080F0;shadow=0;dashed=0;shape=mxgraph.ios7.icons.smartphone;" vertex="1" parent="1">
          <mxGeometry x="110" y="380" width="62" height="82" as="geometry" />
        </mxCell>
        <mxCell id="hV2q_BAAgB7fmabV7wKd-7" style="edgeStyle=orthogonalEdgeStyle;rounded=0;orthogonalLoop=1;jettySize=auto;html=1;" edge="1" parent="1" source="hV2q_BAAgB7fmabV7wKd-2" target="hV2q_BAAgB7fmabV7wKd-6">
          <mxGeometry relative="1" as="geometry">
            <Array as="points">
              <mxPoint x="270" y="169" />
              <mxPoint x="270" y="169" />
            </Array>
          </mxGeometry>
        </mxCell>
        <mxCell id="hV2q_BAAgB7fmabV7wKd-12" style="edgeStyle=orthogonalEdgeStyle;rounded=1;orthogonalLoop=1;jettySize=auto;html=1;curved=0;dashed=1;" edge="1" parent="1" source="hV2q_BAAgB7fmabV7wKd-2" target="hV2q_BAAgB7fmabV7wKd-1">
          <mxGeometry relative="1" as="geometry">
            <Array as="points">
              <mxPoint x="141" y="280" />
            </Array>
          </mxGeometry>
        </mxCell>
        <mxCell id="hV2q_BAAgB7fmabV7wKd-2" value="cloud-front" style="sketch=0;points=[[0,0,0],[0.25,0,0],[0.5,0,0],[0.75,0,0],[1,0,0],[0,1,0],[0.25,1,0],[0.5,1,0],[0.75,1,0],[1,1,0],[0,0.25,0],[0,0.5,0],[0,0.75,0],[1,0.25,0],[1,0.5,0],[1,0.75,0]];outlineConnect=0;fontColor=#232F3E;fillColor=#8C4FFF;strokeColor=#ffffff;dashed=0;verticalLabelPosition=bottom;verticalAlign=top;align=center;html=1;fontSize=12;fontStyle=0;aspect=fixed;shape=mxgraph.aws4.resourceIcon;resIcon=mxgraph.aws4.cloudfront;" vertex="1" parent="1">
          <mxGeometry x="240" y="229" width="78" height="78" as="geometry" />
        </mxCell>
        <mxCell id="hV2q_BAAgB7fmabV7wKd-5" style="edgeStyle=orthogonalEdgeStyle;rounded=0;orthogonalLoop=1;jettySize=auto;html=1;dashed=1;" edge="1" parent="1" source="hV2q_BAAgB7fmabV7wKd-3" target="hV2q_BAAgB7fmabV7wKd-1">
          <mxGeometry relative="1" as="geometry">
            <Array as="points">
              <mxPoint x="220" y="430" />
              <mxPoint x="220" y="430" />
            </Array>
          </mxGeometry>
        </mxCell>
        <mxCell id="hV2q_BAAgB7fmabV7wKd-3" value="payment-platforml.com" style="sketch=0;points=[[0,0,0],[0.25,0,0],[0.5,0,0],[0.75,0,0],[1,0,0],[0,1,0],[0.25,1,0],[0.5,1,0],[0.75,1,0],[1,1,0],[0,0.25,0],[0,0.5,0],[0,0.75,0],[1,0.25,0],[1,0.5,0],[1,0.75,0]];outlineConnect=0;fontColor=#232F3E;fillColor=#8C4FFF;strokeColor=#ffffff;dashed=0;verticalLabelPosition=bottom;verticalAlign=top;align=center;html=1;fontSize=12;fontStyle=0;aspect=fixed;shape=mxgraph.aws4.resourceIcon;resIcon=mxgraph.aws4.route_53;" vertex="1" parent="1">
          <mxGeometry x="240" y="389" width="78" height="78" as="geometry" />
        </mxCell>
        <mxCell id="hV2q_BAAgB7fmabV7wKd-10" style="edgeStyle=orthogonalEdgeStyle;rounded=0;orthogonalLoop=1;jettySize=auto;html=1;" edge="1" parent="1" source="hV2q_BAAgB7fmabV7wKd-6" target="hV2q_BAAgB7fmabV7wKd-2">
          <mxGeometry relative="1" as="geometry">
            <Array as="points">
              <mxPoint x="290" y="169" />
              <mxPoint x="290" y="169" />
            </Array>
          </mxGeometry>
        </mxCell>
        <mxCell id="hV2q_BAAgB7fmabV7wKd-6" value="static content web" style="sketch=0;points=[[0,0,0],[0.25,0,0],[0.5,0,0],[0.75,0,0],[1,0,0],[0,1,0],[0.25,1,0],[0.5,1,0],[0.75,1,0],[1,1,0],[0,0.25,0],[0,0.5,0],[0,0.75,0],[1,0.25,0],[1,0.5,0],[1,0.75,0]];outlineConnect=0;fontColor=#232F3E;fillColor=#7AA116;strokeColor=#ffffff;dashed=0;verticalLabelPosition=bottom;verticalAlign=top;align=center;html=1;fontSize=12;fontStyle=0;aspect=fixed;shape=mxgraph.aws4.resourceIcon;resIcon=mxgraph.aws4.s3;" vertex="1" parent="1">
          <mxGeometry x="240" y="79" width="78" height="78" as="geometry" />
        </mxCell>
        <mxCell id="hV2q_BAAgB7fmabV7wKd-15" style="edgeStyle=orthogonalEdgeStyle;rounded=0;orthogonalLoop=1;jettySize=auto;html=1;dashed=1;" edge="1" parent="1" source="hV2q_BAAgB7fmabV7wKd-13" target="hV2q_BAAgB7fmabV7wKd-1">
          <mxGeometry relative="1" as="geometry">
            <Array as="points">
              <mxPoint x="140" y="590" />
            </Array>
          </mxGeometry>
        </mxCell>
        <mxCell id="hV2q_BAAgB7fmabV7wKd-18" style="edgeStyle=orthogonalEdgeStyle;rounded=0;orthogonalLoop=1;jettySize=auto;html=1;" edge="1" parent="1" source="hV2q_BAAgB7fmabV7wKd-13" target="hV2q_BAAgB7fmabV7wKd-17">
          <mxGeometry relative="1" as="geometry">
            <mxPoint x="430" y="599" as="targetPoint" />
          </mxGeometry>
        </mxCell>
        <mxCell id="hV2q_BAAgB7fmabV7wKd-51" value="&lt;div&gt;cancel scheduled payment request&lt;/div&gt;&lt;div&gt;DELETE /SheduledPayments/{SheduledPaymentId}&lt;br&gt;&lt;/div&gt;" style="edgeLabel;html=1;align=center;verticalAlign=middle;resizable=0;points=[];" vertex="1" connectable="0" parent="hV2q_BAAgB7fmabV7wKd-18">
          <mxGeometry x="-0.2334" y="-4" relative="1" as="geometry">
            <mxPoint x="35" y="-23" as="offset" />
          </mxGeometry>
        </mxCell>
        <mxCell id="hV2q_BAAgB7fmabV7wKd-13" value="public payment api gateway" style="outlineConnect=0;dashed=0;verticalLabelPosition=bottom;verticalAlign=top;align=center;html=1;shape=mxgraph.aws3.api_gateway;fillColor=#D9A741;gradientColor=none;" vertex="1" parent="1">
          <mxGeometry x="200" y="552.5" width="76.5" height="93" as="geometry" />
        </mxCell>
        <mxCell id="hV2q_BAAgB7fmabV7wKd-34" style="edgeStyle=orthogonalEdgeStyle;rounded=0;orthogonalLoop=1;jettySize=auto;html=1;" edge="1" parent="1" source="hV2q_BAAgB7fmabV7wKd-17" target="hV2q_BAAgB7fmabV7wKd-19">
          <mxGeometry relative="1" as="geometry" />
        </mxCell>
        <mxCell id="hV2q_BAAgB7fmabV7wKd-17" value="automatic-payments" style="sketch=0;points=[[0,0,0],[0.25,0,0],[0.5,0,0],[0.75,0,0],[1,0,0],[0,1,0],[0.25,1,0],[0.5,1,0],[0.75,1,0],[1,1,0],[0,0.25,0],[0,0.5,0],[0,0.75,0],[1,0.25,0],[1,0.5,0],[1,0.75,0]];outlineConnect=0;fontColor=#232F3E;fillColor=#E7157B;strokeColor=#ffffff;dashed=0;verticalLabelPosition=bottom;verticalAlign=top;align=center;html=1;fontSize=12;fontStyle=0;aspect=fixed;shape=mxgraph.aws4.resourceIcon;resIcon=mxgraph.aws4.sqs;" vertex="1" parent="1">
          <mxGeometry x="560" y="560" width="78" height="78" as="geometry" />
        </mxCell>
        <mxCell id="hV2q_BAAgB7fmabV7wKd-19" value="automatic-payments-dlq" style="sketch=0;points=[[0,0,0],[0.25,0,0],[0.5,0,0],[0.75,0,0],[1,0,0],[0,1,0],[0.25,1,0],[0.5,1,0],[0.75,1,0],[1,1,0],[0,0.25,0],[0,0.5,0],[0,0.75,0],[1,0.25,0],[1,0.5,0],[1,0.75,0]];outlineConnect=0;fontColor=#232F3E;fillColor=#E7157B;strokeColor=#ffffff;dashed=0;verticalLabelPosition=bottom;verticalAlign=top;align=center;html=1;fontSize=12;fontStyle=0;aspect=fixed;shape=mxgraph.aws4.resourceIcon;resIcon=mxgraph.aws4.sqs;" vertex="1" parent="1">
          <mxGeometry x="578" y="365" width="42" height="42" as="geometry" />
        </mxCell>
        <mxCell id="hV2q_BAAgB7fmabV7wKd-29" style="edgeStyle=orthogonalEdgeStyle;rounded=0;orthogonalLoop=1;jettySize=auto;html=1;" edge="1" parent="1" source="hV2q_BAAgB7fmabV7wKd-20" target="hV2q_BAAgB7fmabV7wKd-52">
          <mxGeometry relative="1" as="geometry">
            <mxPoint x="1170" y="599" as="targetPoint" />
          </mxGeometry>
        </mxCell>
        <mxCell id="hV2q_BAAgB7fmabV7wKd-30" value="cancels scheduled payment" style="edgeLabel;html=1;align=center;verticalAlign=middle;resizable=0;points=[];" vertex="1" connectable="0" parent="hV2q_BAAgB7fmabV7wKd-29">
          <mxGeometry x="-0.3193" y="3" relative="1" as="geometry">
            <mxPoint x="47" y="-9" as="offset" />
          </mxGeometry>
        </mxCell>
        <mxCell id="hV2q_BAAgB7fmabV7wKd-20" value="&lt;div&gt;automatic-payments&lt;/div&gt;&lt;div&gt;takes advantage of reserved concurrency for better performance&lt;/div&gt;&lt;div&gt;takes advantage of aws lambda&#39;s 15GB of RAM for vertical scaling (threads)&lt;br&gt;&lt;/div&gt;" style="sketch=0;points=[[0,0,0],[0.25,0,0],[0.5,0,0],[0.75,0,0],[1,0,0],[0,1,0],[0.25,1,0],[0.5,1,0],[0.75,1,0],[1,1,0],[0,0.25,0],[0,0.5,0],[0,0.75,0],[1,0.25,0],[1,0.5,0],[1,0.75,0]];outlineConnect=0;fontColor=#232F3E;fillColor=#ED7100;strokeColor=#ffffff;dashed=0;verticalLabelPosition=bottom;verticalAlign=top;align=center;html=1;fontSize=12;fontStyle=0;aspect=fixed;shape=mxgraph.aws4.resourceIcon;resIcon=mxgraph.aws4.lambda;" vertex="1" parent="1">
          <mxGeometry x="880" y="560" width="78" height="78" as="geometry" />
        </mxCell>
        <mxCell id="hV2q_BAAgB7fmabV7wKd-25" style="edgeStyle=orthogonalEdgeStyle;rounded=0;orthogonalLoop=1;jettySize=auto;html=1;" edge="1" parent="1" source="hV2q_BAAgB7fmabV7wKd-23" target="hV2q_BAAgB7fmabV7wKd-17">
          <mxGeometry relative="1" as="geometry">
            <Array as="points">
              <mxPoint x="690" y="602.5" />
              <mxPoint x="690" y="602.5" />
            </Array>
          </mxGeometry>
        </mxCell>
        <mxCell id="hV2q_BAAgB7fmabV7wKd-26" value="polls" style="edgeLabel;html=1;align=center;verticalAlign=middle;resizable=0;points=[];" vertex="1" connectable="0" parent="hV2q_BAAgB7fmabV7wKd-25">
          <mxGeometry x="-0.0168" y="-1" relative="1" as="geometry">
            <mxPoint y="-19" as="offset" />
          </mxGeometry>
        </mxCell>
        <mxCell id="hV2q_BAAgB7fmabV7wKd-27" style="edgeStyle=orthogonalEdgeStyle;rounded=0;orthogonalLoop=1;jettySize=auto;html=1;" edge="1" parent="1" source="hV2q_BAAgB7fmabV7wKd-23" target="hV2q_BAAgB7fmabV7wKd-20">
          <mxGeometry relative="1" as="geometry" />
        </mxCell>
        <mxCell id="hV2q_BAAgB7fmabV7wKd-23" value="event source mapping" style="rounded=1;fillColor=none;gradientColor=none;arcSize=10;dashed=1;" vertex="1" parent="1">
          <mxGeometry x="690" y="587.25" width="140" height="23.5" as="geometry" />
        </mxCell>
        <mxCell id="hV2q_BAAgB7fmabV7wKd-54" style="edgeStyle=orthogonalEdgeStyle;rounded=0;orthogonalLoop=1;jettySize=auto;html=1;" edge="1" parent="1" source="hV2q_BAAgB7fmabV7wKd-32" target="hV2q_BAAgB7fmabV7wKd-53">
          <mxGeometry relative="1" as="geometry">
            <Array as="points">
              <mxPoint x="1449" y="670" />
            </Array>
          </mxGeometry>
        </mxCell>
        <mxCell id="hV2q_BAAgB7fmabV7wKd-66" value="read/write operations" style="edgeLabel;html=1;align=center;verticalAlign=middle;resizable=0;points=[];" vertex="1" connectable="0" parent="hV2q_BAAgB7fmabV7wKd-54">
          <mxGeometry x="-0.0871" y="3" relative="1" as="geometry">
            <mxPoint y="-9" as="offset" />
          </mxGeometry>
        </mxCell>
        <mxCell id="hV2q_BAAgB7fmabV7wKd-57" style="edgeStyle=orthogonalEdgeStyle;rounded=1;orthogonalLoop=1;jettySize=auto;html=1;curved=0;" edge="1" parent="1" source="hV2q_BAAgB7fmabV7wKd-32" target="hV2q_BAAgB7fmabV7wKd-56">
          <mxGeometry relative="1" as="geometry">
            <Array as="points">
              <mxPoint x="1560" y="787.25" />
              <mxPoint x="1560" y="787.25" />
            </Array>
          </mxGeometry>
        </mxCell>
        <mxCell id="hV2q_BAAgB7fmabV7wKd-32" value="&lt;div&gt;payment-receipts&lt;/div&gt;" style="sketch=0;points=[[0,0,0],[0.25,0,0],[0.5,0,0],[0.75,0,0],[1,0,0],[0,1,0],[0.25,1,0],[0.5,1,0],[0.75,1,0],[1,1,0],[0,0.25,0],[0,0.5,0],[0,0.75,0],[1,0.25,0],[1,0.5,0],[1,0.75,0]];outlineConnect=0;fontColor=#232F3E;fillColor=#ED7100;strokeColor=#ffffff;dashed=0;verticalLabelPosition=bottom;verticalAlign=top;align=center;html=1;fontSize=12;fontStyle=0;aspect=fixed;shape=mxgraph.aws4.resourceIcon;resIcon=mxgraph.aws4.lambda;" vertex="1" parent="1">
          <mxGeometry x="1410" y="757.25" width="78" height="78" as="geometry" />
        </mxCell>
        <mxCell id="hV2q_BAAgB7fmabV7wKd-40" style="edgeStyle=orthogonalEdgeStyle;rounded=0;orthogonalLoop=1;jettySize=auto;html=1;" edge="1" parent="1" source="hV2q_BAAgB7fmabV7wKd-36" target="hV2q_BAAgB7fmabV7wKd-19">
          <mxGeometry relative="1" as="geometry" />
        </mxCell>
        <mxCell id="hV2q_BAAgB7fmabV7wKd-36" value="cloudwatch alarm for unprocessed requests" style="sketch=0;outlineConnect=0;fontColor=#232F3E;gradientColor=none;fillColor=#E7157B;strokeColor=none;dashed=0;verticalLabelPosition=bottom;verticalAlign=top;align=center;html=1;fontSize=12;fontStyle=0;aspect=fixed;pointerEvents=1;shape=mxgraph.aws4.alarm;" vertex="1" parent="1">
          <mxGeometry x="560" y="210" width="78" height="78" as="geometry" />
        </mxCell>
        <mxCell id="hV2q_BAAgB7fmabV7wKd-43" style="edgeStyle=orthogonalEdgeStyle;rounded=0;orthogonalLoop=1;jettySize=auto;html=1;" edge="1" parent="1" source="hV2q_BAAgB7fmabV7wKd-41" target="hV2q_BAAgB7fmabV7wKd-42">
          <mxGeometry relative="1" as="geometry" />
        </mxCell>
        <mxCell id="hV2q_BAAgB7fmabV7wKd-41" value="automatic-payment-failed-events" style="sketch=0;points=[[0,0,0],[0.25,0,0],[0.5,0,0],[0.75,0,0],[1,0,0],[0,1,0],[0.25,1,0],[0.5,1,0],[0.75,1,0],[1,1,0],[0,0.25,0],[0,0.5,0],[0,0.75,0],[1,0.25,0],[1,0.5,0],[1,0.75,0]];outlineConnect=0;fontColor=#232F3E;fillColor=#ED7100;strokeColor=#ffffff;dashed=0;verticalLabelPosition=bottom;verticalAlign=top;align=center;html=1;fontSize=12;fontStyle=0;aspect=fixed;shape=mxgraph.aws4.resourceIcon;resIcon=mxgraph.aws4.lambda;" vertex="1" parent="1">
          <mxGeometry x="880" y="347" width="78" height="78" as="geometry" />
        </mxCell>
        <mxCell id="hV2q_BAAgB7fmabV7wKd-42" value="failed payment events and commands" style="sketch=0;points=[[0,0,0],[0.25,0,0],[0.5,0,0],[0.75,0,0],[1,0,0],[0,1,0],[0.25,1,0],[0.5,1,0],[0.75,1,0],[1,1,0],[0,0.25,0],[0,0.5,0],[0,0.75,0],[1,0.25,0],[1,0.5,0],[1,0.75,0]];outlineConnect=0;fontColor=#232F3E;fillColor=#C925D1;strokeColor=#ffffff;dashed=0;verticalLabelPosition=bottom;verticalAlign=top;align=center;html=1;fontSize=12;fontStyle=0;aspect=fixed;shape=mxgraph.aws4.resourceIcon;resIcon=mxgraph.aws4.rds;" vertex="1" parent="1">
          <mxGeometry x="1170" y="347" width="78" height="78" as="geometry" />
        </mxCell>
        <mxCell id="hV2q_BAAgB7fmabV7wKd-45" style="edgeStyle=orthogonalEdgeStyle;rounded=0;orthogonalLoop=1;jettySize=auto;html=1;" edge="1" parent="1" source="hV2q_BAAgB7fmabV7wKd-44" target="hV2q_BAAgB7fmabV7wKd-19">
          <mxGeometry relative="1" as="geometry" />
        </mxCell>
        <mxCell id="hV2q_BAAgB7fmabV7wKd-46" style="edgeStyle=orthogonalEdgeStyle;rounded=0;orthogonalLoop=1;jettySize=auto;html=1;" edge="1" parent="1" source="hV2q_BAAgB7fmabV7wKd-44" target="hV2q_BAAgB7fmabV7wKd-41">
          <mxGeometry relative="1" as="geometry" />
        </mxCell>
        <mxCell id="hV2q_BAAgB7fmabV7wKd-44" value="event source mapping" style="rounded=1;fillColor=none;gradientColor=none;arcSize=10;dashed=1;" vertex="1" parent="1">
          <mxGeometry x="690" y="374.25" width="140" height="23.5" as="geometry" />
        </mxCell>
        <mxCell id="hV2q_BAAgB7fmabV7wKd-52" value="scheduled-payments" style="sketch=0;points=[[0,0,0],[0.25,0,0],[0.5,0,0],[0.75,0,0],[1,0,0],[0,1,0],[0.25,1,0],[0.5,1,0],[0.75,1,0],[1,1,0],[0,0.25,0],[0,0.5,0],[0,0.75,0],[1,0.25,0],[1,0.5,0],[1,0.75,0]];outlineConnect=0;fontColor=#232F3E;fillColor=#C925D1;strokeColor=#ffffff;dashed=0;verticalLabelPosition=bottom;verticalAlign=top;align=center;html=1;fontSize=12;fontStyle=0;aspect=fixed;shape=mxgraph.aws4.resourceIcon;resIcon=mxgraph.aws4.rds;" vertex="1" parent="1">
          <mxGeometry x="1170" y="560" width="78" height="78" as="geometry" />
        </mxCell>
        <mxCell id="hV2q_BAAgB7fmabV7wKd-53" value="automatic-payment-receipt-database" style="sketch=0;points=[[0,0,0],[0.25,0,0],[0.5,0,0],[0.75,0,0],[1,0,0],[0,1,0],[0.25,1,0],[0.5,1,0],[0.75,1,0],[1,1,0],[0,0.25,0],[0,0.5,0],[0,0.75,0],[1,0.25,0],[1,0.5,0],[1,0.75,0]];outlineConnect=0;fontColor=#232F3E;fillColor=#C925D1;strokeColor=#ffffff;dashed=0;verticalLabelPosition=bottom;verticalAlign=top;align=center;html=1;fontSize=12;fontStyle=0;aspect=fixed;shape=mxgraph.aws4.resourceIcon;resIcon=mxgraph.aws4.rds;" vertex="1" parent="1">
          <mxGeometry x="1610" y="630" width="78" height="78" as="geometry" />
        </mxCell>
        <mxCell id="hV2q_BAAgB7fmabV7wKd-59" style="edgeStyle=orthogonalEdgeStyle;rounded=1;orthogonalLoop=1;jettySize=auto;html=1;dashed=1;curved=0;" edge="1" parent="1" source="hV2q_BAAgB7fmabV7wKd-56" target="hV2q_BAAgB7fmabV7wKd-32">
          <mxGeometry relative="1" as="geometry">
            <Array as="points">
              <mxPoint x="1550" y="807.25" />
              <mxPoint x="1550" y="807.25" />
            </Array>
          </mxGeometry>
        </mxCell>
        <mxCell id="hV2q_BAAgB7fmabV7wKd-56" value="&lt;div&gt;payment-receipts/canceled-payments-receipts/.pdf&lt;br&gt;&lt;/div&gt;" style="sketch=0;points=[[0,0,0],[0.25,0,0],[0.5,0,0],[0.75,0,0],[1,0,0],[0,1,0],[0.25,1,0],[0.5,1,0],[0.75,1,0],[1,1,0],[0,0.25,0],[0,0.5,0],[0,0.75,0],[1,0.25,0],[1,0.5,0],[1,0.75,0]];outlineConnect=0;fontColor=#232F3E;fillColor=#7AA116;strokeColor=#ffffff;dashed=0;verticalLabelPosition=bottom;verticalAlign=top;align=center;html=1;fontSize=12;fontStyle=0;aspect=fixed;shape=mxgraph.aws4.resourceIcon;resIcon=mxgraph.aws4.s3;" vertex="1" parent="1">
          <mxGeometry x="1610" y="757.25" width="78" height="78" as="geometry" />
        </mxCell>
        <mxCell id="hV2q_BAAgB7fmabV7wKd-106" style="edgeStyle=orthogonalEdgeStyle;rounded=0;orthogonalLoop=1;jettySize=auto;html=1;" edge="1" parent="1" source="hV2q_BAAgB7fmabV7wKd-60" target="hV2q_BAAgB7fmabV7wKd-104">
          <mxGeometry relative="1" as="geometry" />
        </mxCell>
        <mxCell id="hV2q_BAAgB7fmabV7wKd-60" value="generate-payment-receipt" style="sketch=0;points=[[0,0,0],[0.25,0,0],[0.5,0,0],[0.75,0,0],[1,0,0],[0,1,0],[0.25,1,0],[0.5,1,0],[0.75,1,0],[1,1,0],[0,0.25,0],[0,0.5,0],[0,0.75,0],[1,0.25,0],[1,0.5,0],[1,0.75,0]];outlineConnect=0;fontColor=#232F3E;fillColor=#E7157B;strokeColor=#ffffff;dashed=0;verticalLabelPosition=bottom;verticalAlign=top;align=center;html=1;fontSize=12;fontStyle=0;aspect=fixed;shape=mxgraph.aws4.resourceIcon;resIcon=mxgraph.aws4.sqs;" vertex="1" parent="1">
          <mxGeometry x="1070" y="757.25" width="78" height="78" as="geometry" />
        </mxCell>
        <mxCell id="hV2q_BAAgB7fmabV7wKd-64" style="edgeStyle=orthogonalEdgeStyle;rounded=0;orthogonalLoop=1;jettySize=auto;html=1;" edge="1" parent="1" source="hV2q_BAAgB7fmabV7wKd-62" target="hV2q_BAAgB7fmabV7wKd-60">
          <mxGeometry relative="1" as="geometry" />
        </mxCell>
        <mxCell id="hV2q_BAAgB7fmabV7wKd-65" style="edgeStyle=orthogonalEdgeStyle;rounded=0;orthogonalLoop=1;jettySize=auto;html=1;" edge="1" parent="1" source="hV2q_BAAgB7fmabV7wKd-62" target="hV2q_BAAgB7fmabV7wKd-32">
          <mxGeometry relative="1" as="geometry" />
        </mxCell>
        <mxCell id="hV2q_BAAgB7fmabV7wKd-62" value="event source mapping" style="rounded=1;fillColor=none;gradientColor=none;arcSize=10;dashed=1;" vertex="1" parent="1">
          <mxGeometry x="1204" y="784.5" width="140" height="23.5" as="geometry" />
        </mxCell>
        <mxCell id="hV2q_BAAgB7fmabV7wKd-86" style="edgeStyle=orthogonalEdgeStyle;rounded=0;orthogonalLoop=1;jettySize=auto;html=1;" edge="1" parent="1" source="hV2q_BAAgB7fmabV7wKd-73" target="hV2q_BAAgB7fmabV7wKd-85">
          <mxGeometry relative="1" as="geometry" />
        </mxCell>
        <mxCell id="hV2q_BAAgB7fmabV7wKd-73" value="&lt;div&gt;perform payment &lt;br&gt;&lt;/div&gt;" style="rounded=1;whiteSpace=wrap;html=1;fillColor=#ffe6cc;strokeColor=#d79b00;" vertex="1" parent="1">
          <mxGeometry x="484" y="50" width="110" height="30" as="geometry" />
        </mxCell>
        <mxCell id="hV2q_BAAgB7fmabV7wKd-90" style="edgeStyle=orthogonalEdgeStyle;rounded=0;orthogonalLoop=1;jettySize=auto;html=1;" edge="1" parent="1" source="hV2q_BAAgB7fmabV7wKd-75" target="hV2q_BAAgB7fmabV7wKd-89">
          <mxGeometry relative="1" as="geometry" />
        </mxCell>
        <mxCell id="hV2q_BAAgB7fmabV7wKd-75" value="update payment history" style="rounded=1;whiteSpace=wrap;html=1;fillColor=#ffe6cc;strokeColor=#d79b00;" vertex="1" parent="1">
          <mxGeometry x="784" y="50" width="160" height="30" as="geometry" />
        </mxCell>
        <mxCell id="hV2q_BAAgB7fmabV7wKd-88" style="edgeStyle=orthogonalEdgeStyle;rounded=0;orthogonalLoop=1;jettySize=auto;html=1;" edge="1" parent="1" source="hV2q_BAAgB7fmabV7wKd-77" target="hV2q_BAAgB7fmabV7wKd-83">
          <mxGeometry relative="1" as="geometry" />
        </mxCell>
        <mxCell id="hV2q_BAAgB7fmabV7wKd-77" value="cancel scheduled payment" style="rounded=1;whiteSpace=wrap;html=1;fillColor=#ffe6cc;strokeColor=#d79b00;" vertex="1" parent="1">
          <mxGeometry x="484" y="138" width="160" height="30" as="geometry" />
        </mxCell>
        <mxCell id="hV2q_BAAgB7fmabV7wKd-95" style="edgeStyle=orthogonalEdgeStyle;rounded=0;orthogonalLoop=1;jettySize=auto;html=1;" edge="1" parent="1" source="hV2q_BAAgB7fmabV7wKd-83" target="hV2q_BAAgB7fmabV7wKd-75">
          <mxGeometry relative="1" as="geometry" />
        </mxCell>
        <mxCell id="hV2q_BAAgB7fmabV7wKd-96" style="edgeStyle=orthogonalEdgeStyle;rounded=0;orthogonalLoop=1;jettySize=auto;html=1;" edge="1" parent="1" source="hV2q_BAAgB7fmabV7wKd-83" target="hV2q_BAAgB7fmabV7wKd-92">
          <mxGeometry relative="1" as="geometry" />
        </mxCell>
        <mxCell id="hV2q_BAAgB7fmabV7wKd-83" value="scheduled payment canceled" style="rounded=1;whiteSpace=wrap;html=1;fillColor=#f5f5f5;fontColor=#333333;strokeColor=#666666;" vertex="1" parent="1">
          <mxGeometry x="784" y="138" width="160" height="30" as="geometry" />
        </mxCell>
        <mxCell id="hV2q_BAAgB7fmabV7wKd-87" style="edgeStyle=orthogonalEdgeStyle;rounded=0;orthogonalLoop=1;jettySize=auto;html=1;" edge="1" parent="1" source="hV2q_BAAgB7fmabV7wKd-85" target="hV2q_BAAgB7fmabV7wKd-75">
          <mxGeometry relative="1" as="geometry" />
        </mxCell>
        <mxCell id="hV2q_BAAgB7fmabV7wKd-85" value="paid" style="rounded=1;whiteSpace=wrap;html=1;fillColor=#f5f5f5;fontColor=#333333;strokeColor=#666666;" vertex="1" parent="1">
          <mxGeometry x="634" y="50" width="110" height="30" as="geometry" />
        </mxCell>
        <mxCell id="hV2q_BAAgB7fmabV7wKd-94" style="edgeStyle=orthogonalEdgeStyle;rounded=0;orthogonalLoop=1;jettySize=auto;html=1;" edge="1" parent="1" source="hV2q_BAAgB7fmabV7wKd-89" target="hV2q_BAAgB7fmabV7wKd-92">
          <mxGeometry relative="1" as="geometry" />
        </mxCell>
        <mxCell id="hV2q_BAAgB7fmabV7wKd-89" value="payment history updated" style="rounded=1;whiteSpace=wrap;html=1;fillColor=#f5f5f5;fontColor=#333333;strokeColor=#666666;" vertex="1" parent="1">
          <mxGeometry x="1014" y="50" width="150" height="30" as="geometry" />
        </mxCell>
        <mxCell id="hV2q_BAAgB7fmabV7wKd-91" style="edgeStyle=orthogonalEdgeStyle;rounded=0;orthogonalLoop=1;jettySize=auto;html=1;" edge="1" parent="1" source="hV2q_BAAgB7fmabV7wKd-92" target="hV2q_BAAgB7fmabV7wKd-93">
          <mxGeometry relative="1" as="geometry" />
        </mxCell>
        <mxCell id="hV2q_BAAgB7fmabV7wKd-92" value="generate receipt" style="rounded=1;whiteSpace=wrap;html=1;fillColor=#ffe6cc;strokeColor=#d79b00;" vertex="1" parent="1">
          <mxGeometry x="1009" y="138" width="160" height="30" as="geometry" />
        </mxCell>
        <mxCell id="hV2q_BAAgB7fmabV7wKd-93" value="receipt generated" style="rounded=1;whiteSpace=wrap;html=1;fillColor=#f5f5f5;fontColor=#333333;strokeColor=#666666;" vertex="1" parent="1">
          <mxGeometry x="1204" y="138" width="150" height="30" as="geometry" />
        </mxCell>
        <mxCell id="hV2q_BAAgB7fmabV7wKd-108" style="edgeStyle=orthogonalEdgeStyle;rounded=0;orthogonalLoop=1;jettySize=auto;html=1;" edge="1" parent="1" source="hV2q_BAAgB7fmabV7wKd-98" target="hV2q_BAAgB7fmabV7wKd-104">
          <mxGeometry relative="1" as="geometry" />
        </mxCell>
        <mxCell id="hV2q_BAAgB7fmabV7wKd-98" value="update-payment-history" style="sketch=0;points=[[0,0,0],[0.25,0,0],[0.5,0,0],[0.75,0,0],[1,0,0],[0,1,0],[0.25,1,0],[0.5,1,0],[0.75,1,0],[1,1,0],[0,0.25,0],[0,0.5,0],[0,0.75,0],[1,0.25,0],[1,0.5,0],[1,0.75,0]];outlineConnect=0;fontColor=#232F3E;fillColor=#E7157B;strokeColor=#ffffff;dashed=0;verticalLabelPosition=bottom;verticalAlign=top;align=center;html=1;fontSize=12;fontStyle=0;aspect=fixed;shape=mxgraph.aws4.resourceIcon;resIcon=mxgraph.aws4.sqs;" vertex="1" parent="1">
          <mxGeometry x="880" y="927.25" width="78" height="78" as="geometry" />
        </mxCell>
        <mxCell id="hV2q_BAAgB7fmabV7wKd-109" style="edgeStyle=orthogonalEdgeStyle;rounded=0;orthogonalLoop=1;jettySize=auto;html=1;" edge="1" parent="1" source="hV2q_BAAgB7fmabV7wKd-99" target="hV2q_BAAgB7fmabV7wKd-107">
          <mxGeometry relative="1" as="geometry" />
        </mxCell>
        <mxCell id="hV2q_BAAgB7fmabV7wKd-99" value="payment-history" style="sketch=0;points=[[0,0,0],[0.25,0,0],[0.5,0,0],[0.75,0,0],[1,0,0],[0,1,0],[0.25,1,0],[0.5,1,0],[0.75,1,0],[1,1,0],[0,0.25,0],[0,0.5,0],[0,0.75,0],[1,0.25,0],[1,0.5,0],[1,0.75,0]];outlineConnect=0;fontColor=#232F3E;fillColor=#ED7100;strokeColor=#ffffff;dashed=0;verticalLabelPosition=bottom;verticalAlign=top;align=center;html=1;fontSize=12;fontStyle=0;aspect=fixed;shape=mxgraph.aws4.resourceIcon;resIcon=mxgraph.aws4.lambda;" vertex="1" parent="1">
          <mxGeometry x="1190" y="927.25" width="78" height="78" as="geometry" />
        </mxCell>
        <mxCell id="hV2q_BAAgB7fmabV7wKd-102" style="edgeStyle=orthogonalEdgeStyle;rounded=0;orthogonalLoop=1;jettySize=auto;html=1;" edge="1" parent="1" source="hV2q_BAAgB7fmabV7wKd-101" target="hV2q_BAAgB7fmabV7wKd-98">
          <mxGeometry relative="1" as="geometry" />
        </mxCell>
        <mxCell id="hV2q_BAAgB7fmabV7wKd-103" style="edgeStyle=orthogonalEdgeStyle;rounded=0;orthogonalLoop=1;jettySize=auto;html=1;" edge="1" parent="1" source="hV2q_BAAgB7fmabV7wKd-101" target="hV2q_BAAgB7fmabV7wKd-99">
          <mxGeometry relative="1" as="geometry" />
        </mxCell>
        <mxCell id="hV2q_BAAgB7fmabV7wKd-101" value="event source mapping" style="rounded=1;fillColor=none;gradientColor=none;arcSize=10;dashed=1;" vertex="1" parent="1">
          <mxGeometry x="1008" y="954.5" width="140" height="23.5" as="geometry" />
        </mxCell>
        <mxCell id="hV2q_BAAgB7fmabV7wKd-104" value="scheduled payments updated" style="sketch=0;points=[[0,0,0],[0.25,0,0],[0.5,0,0],[0.75,0,0],[1,0,0],[0,1,0],[0.25,1,0],[0.5,1,0],[0.75,1,0],[1,1,0],[0,0.25,0],[0,0.5,0],[0,0.75,0],[1,0.25,0],[1,0.5,0],[1,0.75,0]];outlineConnect=0;fontColor=#232F3E;fillColor=#E7157B;strokeColor=#ffffff;dashed=0;verticalLabelPosition=bottom;verticalAlign=top;align=center;html=1;fontSize=12;fontStyle=0;aspect=fixed;shape=mxgraph.aws4.resourceIcon;resIcon=mxgraph.aws4.sns;" vertex="1" parent="1">
          <mxGeometry x="880" y="757.25" width="78" height="78" as="geometry" />
        </mxCell>
        <mxCell id="hV2q_BAAgB7fmabV7wKd-105" style="edgeStyle=orthogonalEdgeStyle;rounded=0;orthogonalLoop=1;jettySize=auto;html=1;entryX=0.5;entryY=0;entryDx=0;entryDy=0;entryPerimeter=0;" edge="1" parent="1" source="hV2q_BAAgB7fmabV7wKd-20" target="hV2q_BAAgB7fmabV7wKd-104">
          <mxGeometry relative="1" as="geometry">
            <mxPoint x="919" y="665.25" as="sourcePoint" />
          </mxGeometry>
        </mxCell>
        <mxCell id="hV2q_BAAgB7fmabV7wKd-110" value="scheduled payments updated" style="edgeLabel;html=1;align=center;verticalAlign=middle;resizable=0;points=[];" vertex="1" connectable="0" parent="hV2q_BAAgB7fmabV7wKd-105">
          <mxGeometry x="0.3043" y="-1" relative="1" as="geometry">
            <mxPoint x="1" as="offset" />
          </mxGeometry>
        </mxCell>
        <mxCell id="hV2q_BAAgB7fmabV7wKd-107" value="payment-history" style="sketch=0;points=[[0,0,0],[0.25,0,0],[0.5,0,0],[0.75,0,0],[1,0,0],[0,1,0],[0.25,1,0],[0.5,1,0],[0.75,1,0],[1,1,0],[0,0.25,0],[0,0.5,0],[0,0.75,0],[1,0.25,0],[1,0.5,0],[1,0.75,0]];outlineConnect=0;fontColor=#232F3E;fillColor=#C925D1;strokeColor=#ffffff;dashed=0;verticalLabelPosition=bottom;verticalAlign=top;align=center;html=1;fontSize=12;fontStyle=0;aspect=fixed;shape=mxgraph.aws4.resourceIcon;resIcon=mxgraph.aws4.rds;" vertex="1" parent="1">
          <mxGeometry x="1354" y="927.25" width="78" height="78" as="geometry" />
        </mxCell>
      </root>
    </mxGraphModel>
  </diagram>
</mxfile>
